<mxfile host="app.diagrams.net" agent="Mozilla/5.0 (Windows NT 10.0; Win64; x64) AppleWebKit/537.36 (KHTML, like Gecko) Chrome/130.0.0.0 Safari/537.36" version="24.7.17">
  <diagram name="Page-1" id="1LgLeIag75zv4yTVkcg6">
    <mxGraphModel dx="2693" dy="1967" grid="1" gridSize="10" guides="1" tooltips="1" connect="1" arrows="1" fold="1" page="1" pageScale="1" pageWidth="850" pageHeight="1100" math="0" shadow="0">
      <root>
        <mxCell id="0" />
        <mxCell id="1" parent="0" />
        <mxCell id="7bfwhDt4VQLlRqzWGfT6-4" style="edgeStyle=orthogonalEdgeStyle;rounded=0;orthogonalLoop=1;jettySize=auto;html=1;" edge="1" parent="1" source="7bfwhDt4VQLlRqzWGfT6-1" target="7bfwhDt4VQLlRqzWGfT6-2">
          <mxGeometry relative="1" as="geometry" />
        </mxCell>
        <mxCell id="7bfwhDt4VQLlRqzWGfT6-5" style="edgeStyle=orthogonalEdgeStyle;rounded=0;orthogonalLoop=1;jettySize=auto;html=1;exitX=1;exitY=0.5;exitDx=0;exitDy=0;entryX=0.5;entryY=0;entryDx=0;entryDy=0;" edge="1" parent="1" source="7bfwhDt4VQLlRqzWGfT6-1" target="7bfwhDt4VQLlRqzWGfT6-3">
          <mxGeometry relative="1" as="geometry" />
        </mxCell>
        <mxCell id="7bfwhDt4VQLlRqzWGfT6-1" value="Machine Learning" style="rounded=0;whiteSpace=wrap;html=1;" vertex="1" parent="1">
          <mxGeometry x="360" y="60" width="120" height="60" as="geometry" />
        </mxCell>
        <mxCell id="7bfwhDt4VQLlRqzWGfT6-7" value="" style="edgeStyle=orthogonalEdgeStyle;rounded=0;orthogonalLoop=1;jettySize=auto;html=1;" edge="1" parent="1" source="7bfwhDt4VQLlRqzWGfT6-2" target="7bfwhDt4VQLlRqzWGfT6-6">
          <mxGeometry relative="1" as="geometry" />
        </mxCell>
        <mxCell id="7bfwhDt4VQLlRqzWGfT6-9" value="" style="edgeStyle=orthogonalEdgeStyle;rounded=0;orthogonalLoop=1;jettySize=auto;html=1;" edge="1" parent="1" source="7bfwhDt4VQLlRqzWGfT6-2" target="7bfwhDt4VQLlRqzWGfT6-8">
          <mxGeometry relative="1" as="geometry" />
        </mxCell>
        <mxCell id="7bfwhDt4VQLlRqzWGfT6-29" value="" style="edgeStyle=orthogonalEdgeStyle;rounded=0;orthogonalLoop=1;jettySize=auto;html=1;" edge="1" parent="1" source="7bfwhDt4VQLlRqzWGfT6-2" target="7bfwhDt4VQLlRqzWGfT6-28">
          <mxGeometry relative="1" as="geometry" />
        </mxCell>
        <mxCell id="7bfwhDt4VQLlRqzWGfT6-2" value="Supervised Learning" style="rounded=0;whiteSpace=wrap;html=1;" vertex="1" parent="1">
          <mxGeometry x="120" y="160" width="120" height="60" as="geometry" />
        </mxCell>
        <mxCell id="7bfwhDt4VQLlRqzWGfT6-13" value="" style="edgeStyle=orthogonalEdgeStyle;rounded=0;orthogonalLoop=1;jettySize=auto;html=1;" edge="1" parent="1" source="7bfwhDt4VQLlRqzWGfT6-3" target="7bfwhDt4VQLlRqzWGfT6-12">
          <mxGeometry relative="1" as="geometry" />
        </mxCell>
        <mxCell id="7bfwhDt4VQLlRqzWGfT6-15" value="" style="edgeStyle=orthogonalEdgeStyle;rounded=0;orthogonalLoop=1;jettySize=auto;html=1;" edge="1" parent="1" source="7bfwhDt4VQLlRqzWGfT6-3" target="7bfwhDt4VQLlRqzWGfT6-14">
          <mxGeometry relative="1" as="geometry" />
        </mxCell>
        <mxCell id="7bfwhDt4VQLlRqzWGfT6-27" value="" style="edgeStyle=orthogonalEdgeStyle;rounded=0;orthogonalLoop=1;jettySize=auto;html=1;" edge="1" parent="1" source="7bfwhDt4VQLlRqzWGfT6-3" target="7bfwhDt4VQLlRqzWGfT6-26">
          <mxGeometry relative="1" as="geometry" />
        </mxCell>
        <mxCell id="7bfwhDt4VQLlRqzWGfT6-3" value="Unsupervised Learning" style="rounded=0;whiteSpace=wrap;html=1;" vertex="1" parent="1">
          <mxGeometry x="600" y="160" width="120" height="60" as="geometry" />
        </mxCell>
        <mxCell id="7bfwhDt4VQLlRqzWGfT6-17" value="" style="edgeStyle=orthogonalEdgeStyle;rounded=0;orthogonalLoop=1;jettySize=auto;html=1;" edge="1" parent="1" source="7bfwhDt4VQLlRqzWGfT6-6" target="7bfwhDt4VQLlRqzWGfT6-16">
          <mxGeometry relative="1" as="geometry" />
        </mxCell>
        <mxCell id="7bfwhDt4VQLlRqzWGfT6-6" value="Classification" style="rounded=0;whiteSpace=wrap;html=1;" vertex="1" parent="1">
          <mxGeometry x="20" y="340" width="120" height="60" as="geometry" />
        </mxCell>
        <mxCell id="7bfwhDt4VQLlRqzWGfT6-19" value="" style="edgeStyle=orthogonalEdgeStyle;rounded=0;orthogonalLoop=1;jettySize=auto;html=1;" edge="1" parent="1" source="7bfwhDt4VQLlRqzWGfT6-8" target="7bfwhDt4VQLlRqzWGfT6-18">
          <mxGeometry relative="1" as="geometry" />
        </mxCell>
        <mxCell id="7bfwhDt4VQLlRqzWGfT6-8" value="Regression" style="rounded=0;whiteSpace=wrap;html=1;" vertex="1" parent="1">
          <mxGeometry x="220" y="340" width="120" height="60" as="geometry" />
        </mxCell>
        <mxCell id="7bfwhDt4VQLlRqzWGfT6-39" value="" style="edgeStyle=orthogonalEdgeStyle;rounded=0;orthogonalLoop=1;jettySize=auto;html=1;" edge="1" parent="1" source="7bfwhDt4VQLlRqzWGfT6-12" target="7bfwhDt4VQLlRqzWGfT6-38">
          <mxGeometry relative="1" as="geometry" />
        </mxCell>
        <mxCell id="7bfwhDt4VQLlRqzWGfT6-12" value="Clustering" style="rounded=0;whiteSpace=wrap;html=1;" vertex="1" parent="1">
          <mxGeometry x="500" y="340" width="120" height="60" as="geometry" />
        </mxCell>
        <mxCell id="7bfwhDt4VQLlRqzWGfT6-42" value="" style="edgeStyle=orthogonalEdgeStyle;rounded=0;orthogonalLoop=1;jettySize=auto;html=1;" edge="1" parent="1" source="7bfwhDt4VQLlRqzWGfT6-14" target="7bfwhDt4VQLlRqzWGfT6-41">
          <mxGeometry relative="1" as="geometry" />
        </mxCell>
        <mxCell id="7bfwhDt4VQLlRqzWGfT6-14" value="Assotiation" style="rounded=0;whiteSpace=wrap;html=1;" vertex="1" parent="1">
          <mxGeometry x="700" y="340" width="120" height="60" as="geometry" />
        </mxCell>
        <mxCell id="7bfwhDt4VQLlRqzWGfT6-21" value="" style="edgeStyle=orthogonalEdgeStyle;rounded=0;orthogonalLoop=1;jettySize=auto;html=1;" edge="1" parent="1" source="7bfwhDt4VQLlRqzWGfT6-16" target="7bfwhDt4VQLlRqzWGfT6-20">
          <mxGeometry relative="1" as="geometry" />
        </mxCell>
        <mxCell id="7bfwhDt4VQLlRqzWGfT6-16" value="For Discrete Output&amp;nbsp;" style="ellipse;whiteSpace=wrap;html=1;rounded=0;" vertex="1" parent="1">
          <mxGeometry x="20" y="470" width="120" height="80" as="geometry" />
        </mxCell>
        <mxCell id="7bfwhDt4VQLlRqzWGfT6-23" value="" style="edgeStyle=orthogonalEdgeStyle;rounded=0;orthogonalLoop=1;jettySize=auto;html=1;" edge="1" parent="1" source="7bfwhDt4VQLlRqzWGfT6-18" target="7bfwhDt4VQLlRqzWGfT6-22">
          <mxGeometry relative="1" as="geometry" />
        </mxCell>
        <mxCell id="7bfwhDt4VQLlRqzWGfT6-18" value="For Continous Output" style="ellipse;whiteSpace=wrap;html=1;rounded=0;" vertex="1" parent="1">
          <mxGeometry x="220" y="470" width="120" height="80" as="geometry" />
        </mxCell>
        <mxCell id="7bfwhDt4VQLlRqzWGfT6-33" value="" style="edgeStyle=orthogonalEdgeStyle;rounded=0;orthogonalLoop=1;jettySize=auto;html=1;" edge="1" parent="1" source="7bfwhDt4VQLlRqzWGfT6-20" target="7bfwhDt4VQLlRqzWGfT6-32">
          <mxGeometry relative="1" as="geometry" />
        </mxCell>
        <mxCell id="7bfwhDt4VQLlRqzWGfT6-20" value="Example. Fruit Classification by Image" style="ellipse;whiteSpace=wrap;html=1;rounded=0;" vertex="1" parent="1">
          <mxGeometry x="10" y="630" width="140" height="80" as="geometry" />
        </mxCell>
        <mxCell id="7bfwhDt4VQLlRqzWGfT6-35" value="" style="edgeStyle=orthogonalEdgeStyle;rounded=0;orthogonalLoop=1;jettySize=auto;html=1;" edge="1" parent="1" source="7bfwhDt4VQLlRqzWGfT6-22" target="7bfwhDt4VQLlRqzWGfT6-34">
          <mxGeometry relative="1" as="geometry" />
        </mxCell>
        <mxCell id="7bfwhDt4VQLlRqzWGfT6-22" value="Example: Weather Prediction(Rainfall in cm)" style="ellipse;whiteSpace=wrap;html=1;rounded=0;" vertex="1" parent="1">
          <mxGeometry x="220" y="630" width="120" height="80" as="geometry" />
        </mxCell>
        <mxCell id="7bfwhDt4VQLlRqzWGfT6-45" value="" style="edgeStyle=orthogonalEdgeStyle;rounded=0;orthogonalLoop=1;jettySize=auto;html=1;" edge="1" parent="1" source="7bfwhDt4VQLlRqzWGfT6-24" target="7bfwhDt4VQLlRqzWGfT6-44">
          <mxGeometry relative="1" as="geometry" />
        </mxCell>
        <mxCell id="7bfwhDt4VQLlRqzWGfT6-24" value="&lt;div&gt;Face&lt;/div&gt;Image Detection&lt;div&gt;and Recognition&lt;/div&gt;" style="ellipse;whiteSpace=wrap;html=1;rounded=0;" vertex="1" parent="1">
          <mxGeometry x="495" y="530" width="130" height="80" as="geometry" />
        </mxCell>
        <mxCell id="7bfwhDt4VQLlRqzWGfT6-26" value="Unlabelled Data" style="ellipse;whiteSpace=wrap;html=1;rounded=0;" vertex="1" parent="1">
          <mxGeometry x="750" y="150" width="80" height="80" as="geometry" />
        </mxCell>
        <mxCell id="7bfwhDt4VQLlRqzWGfT6-28" value="Labelled Data" style="ellipse;whiteSpace=wrap;html=1;rounded=0;" vertex="1" parent="1">
          <mxGeometry y="150" width="80" height="80" as="geometry" />
        </mxCell>
        <mxCell id="7bfwhDt4VQLlRqzWGfT6-48" value="" style="edgeStyle=orthogonalEdgeStyle;rounded=0;orthogonalLoop=1;jettySize=auto;html=1;" edge="1" parent="1" source="7bfwhDt4VQLlRqzWGfT6-30" target="7bfwhDt4VQLlRqzWGfT6-47">
          <mxGeometry relative="1" as="geometry" />
        </mxCell>
        <mxCell id="7bfwhDt4VQLlRqzWGfT6-30" value="Example:&lt;div&gt;Market Basket Analysis,&lt;/div&gt;&lt;div&gt;Video Recommendation&lt;/div&gt;" style="ellipse;whiteSpace=wrap;html=1;rounded=0;" vertex="1" parent="1">
          <mxGeometry x="680" y="590" width="160" height="80" as="geometry" />
        </mxCell>
        <mxCell id="7bfwhDt4VQLlRqzWGfT6-32" value="Decision Tree Classification&lt;div&gt;K Nearest Neighbour&lt;/div&gt;&lt;div&gt;Random Forest Classification&lt;/div&gt;" style="rhombus;whiteSpace=wrap;html=1;rounded=0;" vertex="1" parent="1">
          <mxGeometry x="-120" y="750" width="231" height="200" as="geometry" />
        </mxCell>
        <mxCell id="7bfwhDt4VQLlRqzWGfT6-34" value="Logistic Regression&lt;div&gt;Polynomial Regression&lt;/div&gt;&lt;div&gt;Support Vector Machine&lt;/div&gt;" style="rhombus;whiteSpace=wrap;html=1;rounded=0;" vertex="1" parent="1">
          <mxGeometry x="260" y="750" width="210" height="210" as="geometry" />
        </mxCell>
        <mxCell id="7bfwhDt4VQLlRqzWGfT6-40" value="" style="edgeStyle=orthogonalEdgeStyle;rounded=0;orthogonalLoop=1;jettySize=auto;html=1;" edge="1" parent="1" source="7bfwhDt4VQLlRqzWGfT6-38" target="7bfwhDt4VQLlRqzWGfT6-24">
          <mxGeometry relative="1" as="geometry" />
        </mxCell>
        <mxCell id="7bfwhDt4VQLlRqzWGfT6-38" value="Involves Grouping of Data" style="ellipse;whiteSpace=wrap;html=1;aspect=fixed;" vertex="1" parent="1">
          <mxGeometry x="520" y="430" width="80" height="80" as="geometry" />
        </mxCell>
        <mxCell id="7bfwhDt4VQLlRqzWGfT6-43" value="" style="edgeStyle=orthogonalEdgeStyle;rounded=0;orthogonalLoop=1;jettySize=auto;html=1;" edge="1" parent="1" source="7bfwhDt4VQLlRqzWGfT6-41" target="7bfwhDt4VQLlRqzWGfT6-30">
          <mxGeometry relative="1" as="geometry" />
        </mxCell>
        <mxCell id="7bfwhDt4VQLlRqzWGfT6-41" value="Used to Important Relationship between DataPoint" style="ellipse;whiteSpace=wrap;html=1;aspect=fixed;" vertex="1" parent="1">
          <mxGeometry x="705" y="430" width="110" height="110" as="geometry" />
        </mxCell>
        <mxCell id="7bfwhDt4VQLlRqzWGfT6-44" value="K-Means-Clustering&lt;div&gt;Hierarchical Clustering&lt;/div&gt;&lt;div&gt;&lt;br&gt;&lt;/div&gt;" style="rhombus;whiteSpace=wrap;html=1;rounded=0;" vertex="1" parent="1">
          <mxGeometry x="470" y="660" width="180" height="140" as="geometry" />
        </mxCell>
        <mxCell id="7bfwhDt4VQLlRqzWGfT6-47" value="Apriori&lt;div&gt;FP Growth&lt;/div&gt;" style="rhombus;whiteSpace=wrap;html=1;rounded=0;" vertex="1" parent="1">
          <mxGeometry x="700" y="750" width="120" height="80" as="geometry" />
        </mxCell>
        <mxCell id="7bfwhDt4VQLlRqzWGfT6-49" value="" style="rhombus;whiteSpace=wrap;html=1;" vertex="1" parent="1">
          <mxGeometry x="1260" y="420" width="80" height="80" as="geometry" />
        </mxCell>
        <mxCell id="7bfwhDt4VQLlRqzWGfT6-50" value="" style="ellipse;whiteSpace=wrap;html=1;" vertex="1" parent="1">
          <mxGeometry x="425" y="-90" width="120" height="80" as="geometry" />
        </mxCell>
        <mxCell id="7bfwhDt4VQLlRqzWGfT6-51" value="" style="ellipse;whiteSpace=wrap;html=1;aspect=fixed;" vertex="1" parent="1">
          <mxGeometry x="570" y="1160" width="80" height="80" as="geometry" />
        </mxCell>
      </root>
    </mxGraphModel>
  </diagram>
</mxfile>
